<?xml version="1.0" encoding="utf-8"?>
<!-- Generator: Adobe Illustrator 16.0.4, SVG Export Plug-In . SVG Version: 6.00 Build 0)  -->
<!DOCTYPE svg PUBLIC "-//W3C//DTD SVG 1.1//EN" "http://www.w3.org/Graphics/SVG/1.1/DTD/svg11.dtd">
<svg version="1.1" id="Calque_1" focusable="false" xmlns="http://www.w3.org/2000/svg" xmlns:xlink="http://www.w3.org/1999/xlink"
	 x="0px" y="0px" width="800px" height="800px" viewBox="0 0 800 800" enable-background="new 0 0 800 800" xml:space="preserve">
<path fill="#CCCCCC" d="M206.688,700H61.562V232.656h145.125V700z M134.047,168.906C87.641,168.906,50,130.469,50,84.062
	c0.007-46.418,37.641-84.042,84.059-84.035c46.408,0.006,84.028,37.626,84.035,84.035
	C218.094,130.469,180.438,168.906,134.047,168.906z M749.844,700H605.031V472.5c0-54.219-1.094-123.75-75.453-123.75
	c-75.453,0-87.016,58.906-87.016,119.844V700H297.594V232.656h139.188v63.75h2.031c19.375-36.719,66.703-75.469,137.312-75.469
	C723,220.938,750,317.656,750,443.281V700H749.844z"/>
</svg>
