<?xml version="1.0" encoding="utf-8"?>
<!-- Generator: Adobe Illustrator 16.0.4, SVG Export Plug-In . SVG Version: 6.00 Build 0)  -->
<!DOCTYPE svg PUBLIC "-//W3C//DTD SVG 1.1//EN" "http://www.w3.org/Graphics/SVG/1.1/DTD/svg11.dtd">
<svg version="1.1" id="Calque_1" focusable="false" xmlns="http://www.w3.org/2000/svg" xmlns:xlink="http://www.w3.org/1999/xlink"
	 x="0px" y="0px" width="800px" height="800px" viewBox="0 0 800 800" enable-background="new 0 0 800 800" xml:space="preserve">
<path fill="#CCCCCC" d="M717.766,237.056c0.508,7.106,0.508,14.214,0.508,21.32c0,216.75-164.974,466.497-466.497,466.497
	c-92.894,0-179.188-26.904-251.776-73.603c13.198,1.521,25.888,2.029,39.594,2.029c76.648,0,147.208-25.888,203.553-70.05
	c-72.082-1.523-132.488-48.731-153.3-113.706c10.153,1.521,20.305,2.537,30.966,2.537c14.72,0,29.442-2.031,43.147-5.583
	C88.833,451.269,32.486,385.28,32.486,305.584v-2.03c21.827,12.183,47.209,19.797,74.111,20.811
	c-44.162-29.442-73.095-79.695-73.095-136.548c0-30.457,8.121-58.375,22.334-82.741c80.711,99.492,202.031,164.465,338.07,171.573
	c-2.537-12.183-4.061-24.872-4.061-37.562c0-90.356,73.097-163.959,163.959-163.959c47.208,0,89.847,19.797,119.797,51.777
	c37.055-7.106,72.588-20.812,104.061-39.594c-12.184,38.072-38.071,70.051-72.081,90.354c32.995-3.551,64.976-12.69,94.416-25.379
	C777.666,184.772,749.745,213.705,717.766,237.056z"/>
</svg>
